<svg xmlns="http://www.w3.org/2000/svg" viewBox="0 0 1000 320" width="100%" height="100%">
  <defs>
    <!-- Background Gradient -->
    <linearGradient id="bg" x1="0%" y1="0%" x2="100%" y2="100%">
      <stop offset="0%" stop-color="#08090d"/>
      <stop offset="50%" stop-color="#12131a"/>
      <stop offset="100%" stop-color="#090a0f"/>
    </linearGradient>

    <!-- Border Metallic Apple Gradient -->
    <linearGradient id="borderGrad" x1="0%" y1="0%" x2="100%" y2="100%">
      <stop offset="0%" stop-color="#ffffff" stop-opacity="0.25"/>
      <stop offset="35%" stop-color="#ffffff" stop-opacity="0.08"/>
      <stop offset="70%" stop-color="#38bdf8" stop-opacity="0.22"/>
      <stop offset="100%" stop-color="#ffffff" stop-opacity="0.12"/>
    </linearGradient>

    <!-- Title Gradient -->
    <linearGradient id="titleGrad" x1="0%" y1="0%" x2="100%" y2="0%">
      <stop offset="0%" stop-color="#ffffff"/>
      <stop offset="60%" stop-color="#f4f4f6"/>
      <stop offset="100%" stop-color="#a1a1aa"/>
    </linearGradient>

    <!-- Apple Intelligence Ambient Glows -->
    <radialGradient id="glowCyan" cx="12%" cy="88%" r="60%">
      <stop offset="0%" stop-color="#00f2fe" stop-opacity="0.16"/>
      <stop offset="100%" stop-color="#00f2fe" stop-opacity="0"/>
    </radialGradient>
    <radialGradient id="glowPurple" cx="88%" cy="85%" r="60%">
      <stop offset="0%" stop-color="#8b5cf6" stop-opacity="0.18"/>
      <stop offset="100%" stop-color="#8b5cf6" stop-opacity="0"/>
    </radialGradient>
    <radialGradient id="glowMagenta" cx="50%" cy="115%" r="55%">
      <stop offset="0%" stop-color="#f43f5e" stop-opacity="0.12"/>
      <stop offset="100%" stop-color="#f43f5e" stop-opacity="0"/>
    </radialGradient>

    <!-- Chip Background Gradient -->
    <linearGradient id="chipBg" x1="0%" y1="0%" x2="0%" y2="100%">
      <stop offset="0%" stop-color="#ffffff" stop-opacity="0.07"/>
      <stop offset="100%" stop-color="#ffffff" stop-opacity="0.025"/>
    </linearGradient>
    <linearGradient id="chipBorder" x1="0%" y1="0%" x2="100%" y2="100%">
      <stop offset="0%" stop-color="#ffffff" stop-opacity="0.16"/>
      <stop offset="100%" stop-color="#ffffff" stop-opacity="0.05"/>
    </linearGradient>

    <!-- Top Bar Pill Gradient -->
    <linearGradient id="pillBg" x1="0%" y1="0%" x2="100%" y2="0%">
      <stop offset="0%" stop-color="#ffffff" stop-opacity="0.06"/>
      <stop offset="100%" stop-color="#ffffff" stop-opacity="0.03"/>
    </linearGradient>

    <style>
      .sf-font {
        font-family: -apple-system, BlinkMacSystemFont, "SF Pro Display", "SF Pro Text", "Helvetica Neue", "Segoe UI", Roboto, sans-serif;
      }
      .mono-font {
        font-family: "SF Mono", Monaco, "Cascadia Code", "Fira Code", Menlo, monospace;
      }
      .status-pulse {
        animation: pulse 2.2s infinite ease-in-out;
      }
      @keyframes pulse {
        0% { opacity: 0.5; r: 3.8px; }
        50% { opacity: 1; r: 4.8px; }
        100% { opacity: 0.5; r: 3.8px; }
      }
    </style>
  </defs>

  <!-- Main Window Shell -->
  <rect x="2" y="2" width="996" height="316" rx="20" ry="20" fill="url(#bg)" stroke="url(#borderGrad)" stroke-width="1.5"/>

  <!-- Ambient Apple Intelligence Glow Layers -->
  <rect x="2" y="2" width="996" height="316" rx="20" ry="20" fill="url(#glowCyan)" style="mix-blend-mode: screen;"/>
  <rect x="2" y="2" width="996" height="316" rx="20" ry="20" fill="url(#glowPurple)" style="mix-blend-mode: screen;"/>
  <rect x="2" y="2" width="996" height="316" rx="20" ry="20" fill="url(#glowMagenta)" style="mix-blend-mode: screen;"/>

  <!-- Window Header Bar Divider -->
  <line x1="2" y1="52" x2="998" y2="52" stroke="#ffffff" stroke-opacity="0.08" stroke-width="1"/>

  <!-- macOS Traffic Lights (Window Controls) -->
  <g transform="translate(26, 20)">
    <!-- Close -->
    <circle cx="6" cy="6" r="6" fill="#FF5F56" stroke="#E0443E" stroke-width="0.8"/>
    <!-- Minimize -->
    <circle cx="26" cy="6" r="6" fill="#FFBD2E" stroke="#DEA123" stroke-width="0.8"/>
    <!-- Zoom -->
    <circle cx="46" cy="6" r="6" fill="#27C93F" stroke="#1AAB29" stroke-width="0.8"/>
  </g>

  <!-- macOS Window Center Title Pill -->
  <g transform="translate(385, 14)">
    <rect x="0" y="0" width="230" height="24" rx="12" fill="url(#pillBg)" stroke="#ffffff" stroke-opacity="0.08" stroke-width="0.8"/>
    <text x="115" y="16.5" text-anchor="middle" fill="#86868B" class="mono-font" font-size="12" font-weight="500" letter-spacing="0.2">
      nenubics ~ zsh
    </text>
  </g>

  <!-- Right Status Badge (Live Indicator) -->
  <g transform="translate(815, 14)">
    <rect x="0" y="0" width="160" height="24" rx="12" fill="url(#pillBg)" stroke="#ffffff" stroke-opacity="0.08" stroke-width="0.8"/>
    <!-- Glowing green dot -->
    <circle cx="16" cy="12" r="4" fill="#34D399" class="status-pulse"/>
    <circle cx="16" cy="12" r="7" fill="#34D399" fill-opacity="0.25"/>
    <text x="28" y="16" fill="#A1A1AA" class="sf-font" font-size="11.5" font-weight="500">
      Available for Projects
    </text>
  </g>

  <!-- Main Hero Content -->
  <g transform="translate(60, 114)">
    <!-- Large Name Title -->
    <text x="0" y="32" class="sf-font" font-size="46" font-weight="700" letter-spacing="-0.8" fill="url(#titleGrad)">
      Artyom <tspan font-weight="400" fill="#6B7280" font-size="34">/ nenubics</tspan>
    </text>

    <!-- Subtitle / Roles -->
    <text x="2" y="68" class="sf-font" font-size="18" font-weight="500" fill="#9CA3AF" letter-spacing="-0.2">
      Cybersecurity Researcher <tspan fill="#38BDF8">•</tspan> Machine Learning <tspan fill="#A855F7">•</tspan> Systems Programming
    </text>

    <!-- Motto in Terminal aesthetic -->
    <text x="2" y="96" class="mono-font" font-size="13.5" fill="#6B7280" letter-spacing="-0.1">
      <tspan fill="#0A84FF">const</tspan> vision = <tspan fill="#34D399">"Breaking code to understand it, writing code to build the future."</tspan>;
    </text>
  </g>

  <!-- Bento Feature Chips (Pill / Widget style) -->
  <g transform="translate(60, 252)">
    <!-- Chip 1: Cybersecurity -->
    <g transform="translate(0, 0)">
      <rect x="0" y="0" width="205" height="38" rx="11" fill="url(#chipBg)" stroke="url(#chipBorder)" stroke-width="1"/>
      <!-- Shield Icon -->
      <g transform="translate(15, 9)">
        <path d="M9 1.5l7 3.1v4.8c0 4.7-3 9.1-7 10.6-4-1.5-7-5.9-7-10.6V4.6l7-3.1z" fill="none" stroke="#38BDF8" stroke-width="1.8" stroke-linecap="round" stroke-linejoin="round"/>
        <path d="M9 6v6" stroke="#38BDF8" stroke-width="1.8" stroke-linecap="round"/>
      </g>
      <text x="40" y="24" class="sf-font" font-size="13" font-weight="600" fill="#FFFFFF">
        CTF &amp; Exploitation
      </text>
    </g>

    <!-- Chip 2: Local AI & LLMs -->
    <g transform="translate(225, 0)">
      <rect x="0" y="0" width="205" height="38" rx="11" fill="url(#chipBg)" stroke="url(#chipBorder)" stroke-width="1"/>
      <!-- Sparkle / AI Icon -->
      <g transform="translate(15, 9)">
        <path d="M9 1.5L10.8 6.5C11.1 7.3 11.7 7.9 12.5 8.2L17.5 10L12.5 11.8C11.7 12.1 11.1 12.7 10.8 13.5L9 18.5L7.2 13.5C6.9 12.7 6.3 12.1 5.5 11.8L0.5 10L5.5 8.2C6.3 7.9 6.9 7.3 7.2 6.5L9 1.5Z" fill="none" stroke="#C084FC" stroke-width="1.6" stroke-linejoin="round"/>
        <circle cx="15.5" cy="3.5" r="1" fill="#C084FC"/>
      </g>
      <text x="40" y="24" class="sf-font" font-size="13" font-weight="600" fill="#FFFFFF">
        Unified AI &amp; LLMs
      </text>
    </g>

    <!-- Chip 3: Systems -->
    <g transform="translate(450, 0)">
      <rect x="0" y="0" width="205" height="38" rx="11" fill="url(#chipBg)" stroke="url(#chipBorder)" stroke-width="1"/>
      <!-- Terminal / Code Icon -->
      <g transform="translate(15, 9)">
        <polyline points="2.5 5 7 9.5 2.5 14" fill="none" stroke="#34D399" stroke-width="1.8" stroke-linecap="round" stroke-linejoin="round"/>
        <line x1="9.5" y1="14" x2="16.5" y2="14" stroke="#34D399" stroke-width="1.8" stroke-linecap="round"/>
      </g>
      <text x="40" y="24" class="sf-font" font-size="13" font-weight="600" fill="#FFFFFF">
        C++ &amp; Go Systems
      </text>
    </g>

    <!-- Chip 4: Neural Networks / Deep Learning -->
    <g transform="translate(675, 0)">
      <rect x="0" y="0" width="205" height="38" rx="11" fill="url(#chipBg)" stroke="url(#chipBorder)" stroke-width="1"/>
      <!-- Neural Network / Nodes Icon -->
      <g transform="translate(15, 9)">
        <circle cx="3" cy="9.5" r="2" fill="#FB7185"/>
        <circle cx="16" cy="4" r="2" fill="#FB7185"/>
        <circle cx="16" cy="15" r="2" fill="#FB7185"/>
        <circle cx="9.5" cy="9.5" r="1.5" fill="#FB7185"/>
        <line x1="3" y1="9.5" x2="9.5" y2="9.5" stroke="#FB7185" stroke-width="1.4" stroke-opacity="0.8"/>
        <line x1="9.5" y1="9.5" x2="16" y2="4" stroke="#FB7185" stroke-width="1.4" stroke-opacity="0.8"/>
        <line x1="9.5" y1="9.5" x2="16" y2="15" stroke="#FB7185" stroke-width="1.4" stroke-opacity="0.8"/>
      </g>
      <text x="40" y="24" class="sf-font" font-size="13" font-weight="600" fill="#FFFFFF">
        Deep Learning &amp; AI
      </text>
    </g>
  </g>

</svg>
